<svg width="512" height="512" viewBox="0 0 512 512" fill="none" xmlns="http://www.w3.org/2000/svg">
<path d="M325.48 421.979C320.334 421.979 315.003 421.076 309.631 419.27C282.627 410.175 264.686 386.895 255.521 371.908C247.155 385.581 230.916 406.931 206.659 417.176C184.986 426.332 162.453 420.358 150.601 402.292C141.682 388.681 138.873 372.935 139.611 358.01C126.816 348.875 117.016 337.05 110.454 322.823C95.2197 289.75 91.693 246.803 101.473 213.381C106.989 194.555 117.528 179.138 130.774 168.668C130.692 165.157 130.794 161.565 131.122 157.952C133.521 131.202 148.1 106.977 168.276 96.261C183.346 88.2546 202.046 87.9056 218.285 95.3372C236.882 103.857 245.638 120.609 253.019 137.032C253.696 138.551 254.413 140.091 255.131 141.672C262.02 125.536 270.365 108.024 288.942 97.7186C314.818 83.3891 347.174 90.8207 364.213 115.025C374.198 129.211 379.488 147.974 379.406 168.052C393.062 178.522 403.908 194.206 409.527 213.401C419.307 246.823 415.78 289.771 400.546 322.843C393.943 337.152 384.061 349.039 371.143 358.195C371.861 370.964 370.302 383.98 365.443 394.819C359.702 407.629 349.88 416.457 337.045 420.337C333.374 421.446 329.479 422 325.46 422L325.48 421.979ZM266.859 349.983C268.356 353.042 269.894 355.916 271.411 358.523C278.444 370.677 293.597 392.212 316.151 399.808C320.006 401.101 325.726 402.292 331.119 400.67C338.295 398.494 343.401 393.834 346.723 386.382C348.896 381.516 350.147 375.768 350.598 369.712C328.33 378.745 312.993 372.75 303.398 364.887C293.043 356.388 287.753 341.34 289.619 325.594C291.403 310.526 299.174 298.311 310.369 292.891C318.099 289.155 326.321 288.662 334.154 291.454C349.183 296.833 358.307 312.517 362.408 321.365C364.274 325.409 365.914 329.946 367.288 334.791C373.398 328.92 378.299 322.022 381.908 314.18C394.989 285.808 398.167 247.603 389.822 219.109C386.87 209.029 382.236 200.283 376.433 193.242C376.31 193.775 376.166 194.289 376.043 194.822C371.102 213.935 362.08 231.344 349.983 245.119C337.906 258.894 323.922 265.525 310.635 263.821C296.898 262.056 284.841 251.237 279.9 236.251C272.457 213.689 278.608 187.001 294.868 171.378C302.864 163.7 312.522 158.26 322.856 155.591C323.409 155.447 323.963 155.303 324.537 155.18C336.019 152.552 347.522 153.271 358.266 156.782C356.872 145.326 353.202 134.979 347.44 126.809C336.635 111.432 315.29 106.546 298.866 115.641C285.19 123.216 279.346 137.012 272.6 152.984C271.247 156.166 269.894 159.368 268.479 162.509C267.782 164.049 267.064 165.609 266.326 167.149C266.183 167.477 266.019 167.785 265.875 168.093C267.413 173.061 268.582 178.091 269.115 183.1C269.689 188.52 267.659 194.124 263.804 197.738C260.482 200.858 256.074 202.192 251.686 201.433C247.955 200.776 244.715 198.682 242.521 195.541C238.625 189.977 239.302 183.223 239.773 180.575C240.614 175.792 242.111 171.378 243.833 167.169C241.66 161.483 239.035 155.796 236.595 150.417C235.816 148.713 235.057 147.03 234.319 145.388C228.086 131.489 221.914 119.521 209.776 113.957C199.462 109.236 187.242 109.379 177.892 114.347C162.596 122.477 153.964 141.159 151.852 157.048C162.842 153.292 174.652 152.491 186.442 155.16C186.996 155.283 187.57 155.427 188.124 155.57C198.437 158.219 208.095 163.679 216.091 171.357C225.708 180.596 232.125 194.022 233.704 208.166C235.529 224.61 231.203 241.28 222.427 251.668C210.514 265.772 191.445 268.092 174.981 257.457C161.509 248.753 151.872 234.198 146.172 223.502C141.907 215.536 137.376 205.251 134.321 193.488C128.621 200.488 124.048 209.131 121.137 219.109C112.812 247.603 115.99 285.808 129.051 314.18C132.64 321.981 137.499 328.838 143.568 334.689C144.983 329.864 146.685 325.389 148.53 321.345C152.631 312.476 161.755 296.812 176.785 291.433C184.617 288.621 192.84 289.134 200.57 292.87C211.785 298.29 219.536 310.526 221.32 325.574C223.186 341.32 217.916 356.368 207.541 364.867C197.945 372.73 182.629 378.724 160.382 369.712C161.243 377.328 163.539 384.657 167.702 391.001C175.391 402.723 188.718 402.436 198.642 398.248C213.733 391.863 228.66 377.39 239.568 358.503C241.291 355.526 242.869 352.59 244.325 349.696C239.609 337.748 236.308 324.013 237.661 310.403C238.072 306.153 239.199 294.841 249.39 290.633C254.147 288.662 259.211 288.765 263.62 290.9C268.725 293.384 272.703 298.537 274.548 305.065C276.148 310.731 275.779 316.233 275.348 319.867C274.261 329.248 271.411 339.308 266.839 349.942L266.859 349.983ZM324.004 310.197C322.487 310.197 320.928 310.587 319.309 311.367C314.572 313.646 310.923 320.175 310 327.996C308.975 336.721 311.476 344.953 316.397 348.977C324.435 355.567 335.445 355.115 349.265 347.684C348.035 341.155 346.148 335.017 343.832 329.988C339.218 320.01 333.026 312.825 327.264 310.772C326.157 310.382 325.091 310.177 324.004 310.177V310.197ZM161.509 347.581C175.411 355.136 186.524 355.629 194.603 348.998C199.524 344.974 202.046 336.721 201 328.017C200.077 320.195 196.428 313.667 191.691 311.388C188.903 310.033 186.381 309.848 183.736 310.793C177.974 312.846 171.782 320.031 167.168 330.008C164.728 335.284 162.76 341.279 161.509 347.581ZM152.221 178.912C154.312 192.728 159.5 204.964 164.257 213.853C170.695 225.924 178.466 235.306 186.094 240.233C189.825 242.635 199.319 247.295 206.782 238.447C211.888 232.391 214.533 221.141 213.344 210.445C212.298 201.002 208.136 192.154 201.923 186.18C196.469 180.945 189.948 177.249 183.018 175.463C182.629 175.361 182.28 175.278 181.911 175.196C171.618 172.835 161.386 174.314 152.221 178.892V178.912ZM338.829 174.108C335.609 174.108 332.37 174.457 329.11 175.217C328.741 175.299 328.371 175.402 328.002 175.484C321.072 177.27 314.552 180.965 309.098 186.2C298.497 196.383 294.417 214.736 299.399 229.825C301.819 237.113 307.519 242.738 313.301 243.477C322.138 244.627 331.16 235.553 334.625 231.59C344.611 220.197 352.095 205.723 356.236 189.69C356.975 186.836 357.569 183.819 358 180.698C358.102 180.021 358.184 179.323 358.266 178.645C352.156 175.689 345.595 174.088 338.849 174.088L338.829 174.108Z" fill="url(#paint0_diamond_132_6)"/>
<defs>
<radialGradient id="paint0_diamond_132_6" cx="0" cy="0" r="1" gradientUnits="userSpaceOnUse" gradientTransform="translate(255.961 255.81) rotate(114.784) scale(318.824 306.068)">
<stop stop-color="#FF627E"/>
<stop offset="1" stop-color="#3D42D0"/>
</radialGradient>
</defs>
</svg>
